# xmcd CD database file
#
# Track frame offsets:
#	150
#	44047
#	78191
#	109732
#	157213
#
# Disc length: 3151 seconds
#
# Revision: 0
# Processed by: cddbd v1.5.2PL0 Copyright (c) Steve Scherf et al.
# Submitted via: CDex 1.81
#
DISCID=3c0c4d05
DTITLE=Simrit Kaur - (2017) Live, North American Spring Tour
DYEAR=2017
DGENRE=New Age
TTITLE0=Prithva Hai (Toronto)
TTITLE1=Clandestine (Boston)
TTITLE2=Pavan Guru (Boston)
TTITLE3=The Keeper (Ottawa)
TTITLE4=Dhan Baba Naanak > Jarabi > Dhan Baba Naanak (Boston)
EXTD=YEAR: 2017
EXTT0=
EXTT1=
EXTT2=
EXTT3=
EXTT4=
PLAYORDER=
